/* XPM */
static char *d2e374fc6f63415882bff45de319f770XkpcN4qJWgnijfd3[] = {
/* columns rows colors chars-per-pixel */
"64 64 215 2 ",
"   c None",
".  c black",
"X  c #010100",
"o  c #010101",
"O  c #000200",
"+  c #030200",
"@  c #030300",
"#  c #020202",
"$  c gray1",
"%  c #040200",
"&  c #000400",
"*  c #030600",
"=  c #040400",
"-  c #050500",
";  c #060400",
":  c #060500",
">  c #040600",
",  c #070600",
"<  c #040404",
"1  c gray2",
"2  c #0A0500",
"3  c #080700",
"4  c #0A0700",
"5  c #090800",
"6  c #0A0800",
"7  c #0A0900",
"8  c #0B0900",
"9  c #0C0800",
"0  c #0C0900",
"q  c #0C0A00",
"w  c #0D0A00",
"e  c #0D0B00",
"r  c #0D0C00",
"t  c #0E0C00",
"y  c #0F0C00",
"u  c #0F0D00",
"i  c #0F0F00",
"p  c #100D00",
"a  c #110D00",
"s  c #100E00",
"d  c #110F00",
"f  c #120E00",
"g  c #141000",
"h  c #141100",
"j  c #141200",
"k  c #151300",
"l  c #121700",
"z  c #161400",
"x  c #171700",
"c  c #181400",
"v  c #191600",
"b  c #1A1700",
"n  c #131800",
"m  c #171900",
"M  c #1A1800",
"N  c #1A1900",
"B  c #1B1900",
"V  c #1B1B00",
"C  c #1D1E00",
"Z  c #1C1F00",
"A  c #101010",
"S  c gray7",
"D  c gray8",
"F  c #181818",
"G  c #191919",
"H  c #201E00",
"J  c #232200",
"K  c #252400",
"L  c #292800",
"P  c #2A2A00",
"I  c #2D2B00",
"U  c #2C2C00",
"Y  c #2E2E00",
"T  c #322F00",
"R  c #323100",
"E  c #363300",
"W  c #373400",
"Q  c #3B3600",
"!  c #3A3700",
"~  c #3D3800",
"^  c #3C3900",
"/  c #3D3900",
"(  c #3E3900",
")  c #3E3A00",
"_  c #3F3A00",
"`  c #3F3C00",
"'  c gray14",
"]  c #252525",
"[  c gray15",
"{  c #272727",
"}  c #282828",
"|  c gray16",
" . c #2A2A2A",
".. c #403C00",
"X. c #423E00",
"o. c #423F00",
"O. c #433F00",
"+. c #443E00",
"@. c #443F00",
"#. c #453F00",
"$. c #454000",
"%. c #464000",
"&. c #464100",
"*. c #474100",
"=. c #474300",
"-. c #484200",
";. c #484300",
":. c #494300",
">. c #494400",
",. c #4A4500",
"<. c #4B4500",
"1. c #4B4600",
"2. c #4C4700",
"3. c #4D4700",
"4. c #4C4800",
"5. c #4D4800",
"6. c #4E4800",
"7. c #4F4900",
"8. c #4F4A00",
"9. c #504B00",
"0. c #575100",
"q. c #5C5700",
"w. c #625B00",
"e. c #665E00",
"r. c #675F00",
"t. c #676000",
"y. c #6C6500",
"u. c #717171",
"i. c #747474",
"p. c gray47",
"a. c #7B7B7B",
"s. c #7E7E7E",
"d. c gray50",
"f. c #BCAE00",
"g. c #BFB100",
"h. c #C1B100",
"j. c #C5B700",
"k. c #C8B900",
"l. c #CDBD00",
"z. c #CFBF00",
"x. c #D1C100",
"c. c #D3C200",
"v. c #D6C400",
"b. c #D6C500",
"n. c #D7C600",
"m. c #D7C700",
"M. c #D8C600",
"N. c #D9C700",
"B. c #D8C800",
"V. c #D9C800",
"C. c #D9C900",
"Z. c #DAC800",
"A. c #DBC900",
"S. c #DBCA00",
"D. c #DCCA00",
"F. c #DDCB00",
"G. c #DDCC00",
"H. c #DECC00",
"J. c #DECD00",
"K. c #DFCE00",
"L. c #E2CF00",
"P. c #E2D000",
"I. c #E3D000",
"U. c #E2D100",
"Y. c #E3D100",
"T. c #E4D100",
"R. c #E5D200",
"E. c #E5D300",
"W. c #E6D300",
"Q. c #E6D400",
"!. c #E7D500",
"~. c #E8D500",
"^. c #E8D600",
"/. c #E9D600",
"(. c #E9D700",
"). c #EAD700",
"_. c #EAD800",
"`. c #EBD800",
"'. c #ECD900",
"]. c #ECDA00",
"[. c #EDDA00",
"{. c #EFDC00",
"}. c #F0DD00",
"|. c #F1DE00",
" X c #F3E000",
".X c #F5E200",
"XX c #F6E200",
"oX c #F7E300",
"OX c #FAE600",
"+X c #FBE600",
"@X c #FCE700",
"#X c #FCE800",
"$X c #FDE800",
"%X c #FEE900",
"&X c #FEEA00",
"*X c #FFEA00",
"=X c #FFEB00",
"-X c #FFEC00",
";X c #FFED00",
":X c #FFEE00",
">X c #FFEF00",
",X c #FFF000",
"<X c #FFF100",
"1X c #FFF200",
"2X c #FFF400",
"3X c #808080",
"4X c #818181",
"5X c gray51",
"6X c #848484",
"7X c gray52",
"8X c #868686",
"9X c #8E8E8E",
"0X c gray56",
"qX c gray57",
"wX c #929292",
/* pixels */
"                                                                                                                                ",
"                                                                                                                                ",
"                                                                                                                                ",
"                                                                                                                                ",
"                                                                                                                                ",
"                                                                                                                                ",
"                                                        . . . . . . . .                                                         ",
"                                                        t g p p t g g t                                                         ",
"                                                        . . . . . . . .                                                         ",
"                                                        %.<.-.-.<.%.<.%.                                                        ",
"                                                . > > p j.G.M.M.M.m.G.j.g > . .                                                 ",
"                                                . > w . (.1X:X:X:X:X1X`.. w > .                                                 ",
"                                                . % w . T.:X&X&X&X&X:XT.. w > .                                                 ",
"                                                . > 5 . T.1X&X&X&X&X:X!.@ 5 > .                                                 ",
"                                                . > w . T.:X&X&X&X@X:XT.@ q @ .                                                 ",
"                                                @ 5 t * !.:X@X&X&X&X:X!.@ t 5 @                                                 ",
"                                                t h v > T.1X&X&X&X&X:XT.@ v h t                                                 ",
"                                                . . . P (.:X@X&X&X&X:X(.P . . .                                                 ",
"                                        . t . #.c.T.L.T.+X&X&X&X&X&X&X+XT.Y.T.c.%.. t .                                         ",
"                                        . p . <.[.1X:X:X&X@X&X&X&X&X&X&X:X:X1X}.3.. p .                                         ",
"                                        . p . <.(.&X&X&X:X:X:X:X:X:X:X:X&X@X&X(.-.. p .                                         ",
"                                        . t . -.(.:X&X+XD.m.m.m.m.M.m.D.+X&X:X(.-.. t .                                         ",
"                                        . t . -.`.&X&X!.w.V W T T E V w.(.&X:X`.-.. p .                 . . . . . . . .         ",
"                                        t v . <.`.&X:XY.<.. t . . w . <.Y.&X&X`.<.. v t                 < < < < < < < <         ",
"                                        . . . ..(.&X&XT.5.. k 5 5 k . 9.T.&X&X`.^ . . .                 . . . . . . . .         ",
"                                        X.3.^ r.[.&X:XY.5.. g . . p . 5.Y.:X&X[.r.~ 3.X.                [ [ [ [ [ [ [ '         ",
"                                . t . ^ k.{.(.[.@X&X&XT.5.. g . . p . 5.Y.:X&X&X[.(.}.k.^ . w . . . . G p.7X5X5X5X5X7Xi.D . . . ",
"                                . t . ^ V.1X&X&X&X&X:XY.5.. t . . p . 5.Y.&X&X&X:X&X1XM.^ . t . . < . G 7XwX0X0X0X0XwXs.A < . . ",
"                                . t . ^ m.:X@X&X&X&X&XT.5.. t . . p . 5.Y.:X&X&X&X@X:Xm.^ . t . . < . G 7XwX0X0X0X0XwXs.A . < . ",
"                                . t . ^ m.:X&X&X&X@X:XY.5.. g . . p . 5.Y.&X&X&X&X@X:Xm.^ . t . . . . G p.5Xs.5Xs.s.5Xu.D . . . ",
"                                . t . ^ m.:X&X&X&X&X&XY.5.. p . . p . 5.Y.:X@X&X&X&X:Xm.^ . t .         } } } } } }  .}         ",
"                                5 k . ` M.:X&X&X&X&X&XT.5.. p . . g . 3.Y.&X&X&X&X&X:Xm.X.. k 5         . . . . . . . .         ",
"                                . 2 . W m.:X&X&X&X&X:XY.5.. p . . p . 5.Y.:X&X&X&X&X:Xm.W . 2 .         < < < < < 1 1 1         ",
"                                I R Z q.D.:X&X&X&X&X&XY.5.. p . . p . 5.Y.:X&X&X&X&X:XD.q.Z R I         . . . . . . . .         ",
"                        . % t @ g.V.c.D.oX&X&X&X&X&X:XY.5.. g . . t . 5.Y.:X@X&X&X&X&XoXD.c.V.g.@ w % . . . . .                 ",
"                        . @ p . (.2X:X:X&X&X&X&X&X@X:XY.5.. p . . g . 5.Y.&X&X&X&X&X&X&X:X:X2X(.. h . . . . . .                 ",
"                        . @ p . L.:X@X&X&X&X&X&X&X&X&XT.5.. p . . p . 5.Y.:X&X&X&X&X&X&X&X@X:XL.. p @ . . . . .                 ",
"                        . @ p . Y.:X&X&X&X&X&X&X&X&X&XY.5.. p . . p . 5.Y.&X@X&X&X&X&X&X&X&X:XY.. p % . . . . .                 ",
"                        . @ p . Y.:X&X&X&X&X&X&X&X&X:XY.5.. p . . g . 5.T.&X&X&X&X&X&X&X&X@X1XY.. p > .                         ",
"                        2 5 h . Y.:X&X&X&X&X&X&X&X&X&XY.9.. h > > g . 5.Y.&X&X&X&X&X&X&X&X&X:XY.. h 2 >                         ",
"                        . . f . L.:X&X&X&X&X&X&X&X&X&XT.3.. p . . p . 3.Y.:X&X&X&X&X&X&X&X&X:XT.. p % .                         ",
"                        V B B I T.:X&X&X&X&X&X&X&X@X:XT.0.. H k m H . 0.!.&X@X&X&X&X&X&X&X&X:XT.I V V B                         ",
"                . w . #.G.`.(.(.&X&X&X&X&X&X&X&X&X&X&X@X[.(.(.(.(.(.(.[.@X&X&X&X&X&X&X&X&X&X&X@X[.(.(.G.#.. t .                 ",
"                . p . -.XX1X:X:X&X&X&X&X&X&X&X&X&X&X&X&X:X:X&X:X:X:X:X&X&X&X&X&X&X&X&X&X&X&X&X&X:X:X1XXX-.. p .                 ",
"                . t . %.}.&X@X&X&X&X&X&X&X&X&X&X&X&X&X&X&X:X:X:X:X:X:X:X&X&X&X&X&X&X&X&X&X&X&X&X&X@X&X}.%.. t .                 ",
"                . t . -.}.&X&X&X&X&X&X&X&X&X&X&X&X&X&X+XD.m.m.m.m.M.m.D.+X&X&X&X&X&X&X&X&X&X&X&X&X&X:X}.%.. t .                 ",
"                . t . %. X:X&X&X&X&X&X&X&X&X&X&X&X&X&X(.r.I X.^ ~ ^ I r.(.:X&X&X&X&X&X&X&X&X&X&X&X&X&X}.%.. t .                 ",
"                t V . <.}.&X&X&X&X&X&X&X&X&X&X&X&X&X:XY.<.. w . . w . 3.L.&X@X&X&X&X&X&X&X&X&X&X&X&X:X}.<.. V g                 ",
"                . . . ^ }.&X&X&X&X&X&X&X&X&X&X&X&X&X&XY.-.. . . . . . -.L.:X&X&X&X&X&X&X&X&X&X&X&X&X:X}.^ . . .                 ",
"                =.9.%.t.XX&X&X&X&X&X&X&X&X&X&X&X&X&X&X!.y.X.5.5.5.5.$.y.!.&X&X&X&X&X&X&X&X&X&X&X&X&X&X|.t.X.9.-.                ",
"        . t . %.f.G.m.D.@X&X&X&X&X&X&X&X&X&X&X&X&X&X&X@XG.V.V.V.V.V.M.G.+X&X&X&X&X&X&X&X&X&X&X&X&X&X&X&XD.M.G.f.%.. t .         ",
"        . g . %.V.1X&X:X&X&X&X&X&X&X&X&X&X&X&X&X&X&X&X&X:X&X:X:X:X:X:X&X&X&X&X&X&X&X&X&X&X&X&X&X&X&X&X&X:X&X1XV.<.. t .         ",
"        . p . <.V.:X&X:X&X:X:X&X:X:X&X:X:X:X&X:X&X:X:X&X:X&X:X&X&X:X&X:X:X:X&X:X:X:X&X:X:X:X&X:X&X:X:X&X:X&X:XV.<.. g .         ",
"        . t . %.l.XX}.}.}.}.}.}.}.}.}.}.}.}.}.}.}.}.}.}.}.}.}.}.}.}.}.}.}.}.}.}.}.}.}.}.}.}.}.}.}.}.}.}.}.}.XXl.X.. t .         ",
"        . . . t Q -.%.%.%.-.-.-.-.%.%.-.-.%.%.-.-.-.%.-.-.-.-.%.-.%.-.-.%.-.-.%.-.%.-.-.%.-.-.%.-.-.%.%.-.%.-.~ t . . .         ",
"        . . @ . . . . . . . . . . . . . . . . . . . . . . . . . . . . . . . . . . . . . . . . . . . . . . . . . . . . .         ",
"        . . . . 5 p t t t t t t t t t t p p p p t t t t t t w p t t t t t t t t p p p w w p t t t t t t t t p 5 . . . .         ",
"        . . . . . . . . . . . . . . . 5 K L P K > . . . . . . . . . . . . . . > K L L K 5 . . . . . . . . . . . . . . .         ",
"                                . p . ^ V.1X:X{.v . 2 .                 . > . v [.1X1XD.^ . t .                                 ",
"                                . w . ~ h.T.T.l.V . > .                 . > . V z.T.T.h.~ . w .                                 ",
"                                        Z n l V                                 v n l Z                                         ",
"                                        % w 2 2                                 9 w w %                                         ",
"                                        > > > >                                 > > > >                                         ",
"                                        . . . .                                 . . . .                                         "
};
