/* XPM */
static char *_4fde2f0d6724c23c607015104735ff4F5FwrAGByu7q4hcO[] = {
/* columns rows colors chars-per-pixel */
"64 64 222 2 ",
"   c None",
".  c black",
"X  c #010100",
"o  c #010101",
"O  c #000200",
"+  c #030200",
"@  c #030300",
"#  c #020202",
"$  c gray1",
"%  c #040200",
"&  c #000400",
"*  c #030600",
"=  c #040400",
"-  c #050500",
";  c #060400",
":  c #060500",
">  c #040600",
",  c #070600",
"<  c #040404",
"1  c gray2",
"2  c #0A0500",
"3  c #080700",
"4  c #0A0700",
"5  c #090800",
"6  c #0A0800",
"7  c #0A0900",
"8  c #0B0900",
"9  c #0C0800",
"0  c #0C0900",
"q  c #0C0A00",
"w  c #0D0A00",
"e  c #0D0B00",
"r  c #0D0C00",
"t  c #0E0C00",
"y  c #0F0C00",
"u  c #0F0D00",
"i  c #0F0F00",
"p  c #100D00",
"a  c #110D00",
"s  c #100E00",
"d  c #110F00",
"f  c #120E00",
"g  c #141000",
"h  c #141100",
"j  c #141200",
"k  c #151300",
"l  c #121700",
"z  c #141400",
"x  c #161400",
"c  c #171700",
"v  c #181400",
"b  c #191600",
"n  c #181700",
"m  c #1A1700",
"M  c #131800",
"N  c #171900",
"B  c #1A1800",
"V  c #1A1900",
"C  c #1B1900",
"Z  c #1B1B00",
"A  c #1D1E00",
"S  c #1C1F00",
"D  c #101010",
"F  c gray7",
"G  c gray8",
"H  c #181818",
"J  c #191919",
"K  c #201E00",
"L  c #232200",
"P  c #252400",
"I  c #292800",
"U  c #2A2A00",
"Y  c #2D2B00",
"T  c #2C2C00",
"R  c #2E2E00",
"E  c #322F00",
"W  c #323100",
"Q  c #333100",
"!  c #363300",
"~  c #373400",
"^  c #3B3600",
"/  c #3A3700",
"(  c #3D3800",
")  c #3C3900",
"_  c #3D3900",
"`  c #3E3900",
"'  c #3D3A00",
"]  c #3E3A00",
"[  c #3F3A00",
"{  c #3F3C00",
"}  c gray14",
"|  c #252525",
" . c gray15",
".. c #272727",
"X. c #282828",
"o. c gray16",
"O. c #2A2A2A",
"+. c #403C00",
"@. c #423E00",
"#. c #423F00",
"$. c #433F00",
"%. c #443E00",
"&. c #443F00",
"*. c #453F00",
"=. c #454000",
"-. c #464000",
";. c #464100",
":. c #474100",
">. c #474300",
",. c #484200",
"<. c #484300",
"1. c #494300",
"2. c #494400",
"3. c #4A4500",
"4. c #4B4500",
"5. c #4B4600",
"6. c #4C4700",
"7. c #4D4700",
"8. c #4C4800",
"9. c #4D4800",
"0. c #4E4800",
"q. c #4F4900",
"w. c #4F4A00",
"e. c #504B00",
"r. c #575100",
"t. c #5C5700",
"y. c #625B00",
"u. c #665E00",
"i. c #675F00",
"p. c #676000",
"a. c #6C6500",
"s. c #717171",
"d. c #747474",
"f. c gray47",
"g. c #7B7B7B",
"h. c #7E7E7E",
"j. c gray50",
"k. c #B9AA00",
"l. c #BCAE00",
"z. c #BFB100",
"x. c #C1B100",
"c. c #C5B700",
"v. c #C8B800",
"b. c #C8B900",
"n. c #CDBD00",
"m. c #CFBF00",
"M. c #D1C100",
"N. c #D3C200",
"B. c #D6C400",
"V. c #D6C500",
"C. c #D7C600",
"Z. c #D7C700",
"A. c #D8C600",
"S. c #D9C700",
"D. c #D8C800",
"F. c #D9C800",
"G. c #D9C900",
"H. c #DAC800",
"J. c #DBC900",
"K. c #DBCA00",
"L. c #DCCA00",
"P. c #DDCB00",
"I. c #DDCC00",
"U. c #DECC00",
"Y. c #DFCC00",
"T. c #DECD00",
"R. c #DFCE00",
"E. c #E2CF00",
"W. c #E2D000",
"Q. c #E3D000",
"!. c #E2D100",
"~. c #E3D100",
"^. c #E4D100",
"/. c #E5D200",
"(. c #E5D300",
"). c #E6D300",
"_. c #E6D400",
"`. c #E7D500",
"'. c #E8D500",
"]. c #E8D600",
"[. c #E9D600",
"{. c #E9D700",
"}. c #EAD700",
"|. c #EAD800",
" X c #EBD800",
".X c #ECD900",
"XX c #ECDA00",
"oX c #EDDA00",
"OX c #EFDC00",
"+X c #F0DD00",
"@X c #F1DE00",
"#X c #F3E000",
"$X c #F5E200",
"%X c #F6E200",
"&X c #F7E300",
"*X c #FAE600",
"=X c #FBE600",
"-X c #FCE700",
";X c #FCE800",
":X c #FDE800",
">X c #FEE900",
",X c #FEEA00",
"<X c #FFEA00",
"1X c #FFEB00",
"2X c #FFEC00",
"3X c #FFED00",
"4X c #FFEE00",
"5X c #FFEF00",
"6X c #FFF000",
"7X c #FFF100",
"8X c #FFF200",
"9X c #FFF400",
"0X c #808080",
"qX c #818181",
"wX c gray51",
"eX c #848484",
"rX c gray52",
"tX c #868686",
"yX c #8E8E8E",
"uX c gray56",
"iX c gray57",
"pX c #929292",
/* pixels */
"                                                                                                                                ",
"                                                                                                                                ",
"                                                                                                                                ",
"                                                                                                                                ",
"                                                        . . . . . . . .                                                         ",
"                                                        p p p p g t g t                                                         ",
"                                                        . . . . . . . .                                                         ",
"                                                        ;.4.4.;.;.4.4.;.                                                        ",
"                                                . . > g c.T.A.F.A.A.P.c.i - - .                                                 ",
"                                                . * t . ].7X5X5X5X5X7X].. w - .                                                 ",
"                                                . - 5 . ^.5X>X>X>X>X5X^.* 5 - .                                                 ",
"                                                . - w . (.5X>X>X>X>X7X(.. w . .                                                 ",
"                                                . - w . ^.7X>X>X>X>X5X^.. w * .                                                 ",
"                                                . 5 t * (.5X>X>X>X>X7X^.> t 2 -                                                 ",
"                                                w k b * ^.7X>X>X>X>X5X^.> b p t                                                 ",
"                                                . . . U ].7X>X>X5X>X5X'.T . . .                                                 ",
"                                        . t . *.M.(.Q.^.*X5X>X>X>X>X>X*X^.Q.^.M.;.. t .                                         ",
"                                        . p . 4.+X7X5X5X>X-X>X>X>X>X>X>X5X5X7X+X4.. p .                                         ",
"                                        . p . 1.].>X>X>X5X5X5X5X7X5X5X5X>X>X>X].1.. p .                                         ",
"                                        . t . 1.].5X>X*XP.B.A.V.V.A.V.P.*X>X5X|.1.. t .                                         ",
"                                        . t . 4.|.>X5X].y.Z ! W W ! Z y.].>X>X|.1.. t .                 . . . . . . . .         ",
"                                        t b . 4.|.>X>XQ.4.. w . . w . 6.E.5X5X].4.. b t                 1 1 1 1 1 1 1 1         ",
"                                        . . . [ |.5X5XQ.9.. z 5 w z . 9.^.>X5X].[ . . .                 . . . . . . . .         ",
"                                        @.6.[ u..X>X>X^.9.. g . . p . 9.E.5X>X.Xu.[ 6.@.                | | | | | | | |         ",
"                                . t . [ b.OX]..X>X>X5XQ.9.. g . . p . 9.Q.5X>X-X.X].OXb.[ . w . . . . H g.eXwXwXwXwXeXs.F . . . ",
"                                . t . ) F.7X>X5X>X>X5XQ.9.. t . . p . 9.Q.5X>X>X5X>X7XF.[ . t . . 1 . H eXiXyXyXyXyXiXj.F . 1 . ",
"                                . t . [ A.5X-X>X>X>X>XQ.9.. g . . g . 9.^.>X>X>X>X>X5XV.) . t . . 1 . H eXiXyXyXiXyXiXj.F 1 . . ",
"                                . t . ) V.5X>X5X>X>X5XQ.9.. t . . p . 9.Q.5X>X>X>X>X7XA.) . t . . . . H g.wXj.j.j.j.wXs.G . . . ",
"                                . t . [ V.5X>X>X>X>X>X^.9.. p . . p . 9.Q.5X>X>X>X>X7XV.[ . p .         O.O.| O.O.O.O.|         ",
"                                5 k . { V.5X>X>X>X>X5XQ.9.. p . . p . 9.Q.5X>X>X>X>X5XA.{ . k 5         . . . . . . . .         ",
"                                . 2 . ~ V.5X>X>X5X>X>XQ.9.. p . . p . 9.E.5X>X>X>X>X5XV.~ . 2 .         1 1 1 1 1 1 1 1         ",
"                                T W S t.T.5X>X>X>X>X5XQ.9.. g . . g . 6.^.5X>X>X>X>X5XT.t.S W T         . . . . . . . .         ",
"                        . % w * x.F.M.P.%X5X>X>X>X>X5XQ.9.. p . . p . 9.Q.5X>X>X>X>X5X*XF.B.F.x.* w % . . . . .                 ",
"                        . % p . ].7X5X5X>X>X>X5X>X>X5XQ.9.. g . . p . 9.Q.5X>X>X>X>X>X>X5X5X9X].. p . . . . . .                 ",
"                        . . p . Q.5X-X>X>X>X>X>X>X>X>XQ.9.. p . . t . 9.E.5X>X>X>X5X>X5X-X-X5XE.. p - . . . . .                 ",
"                        . - p . Q.5X>X>X>X5X>X>X>X>X5XQ.9.. p . . g . 9.^.5X>X>X>X>X>X>X>X>X5XQ.. p * . . . . .                 ",
"                        . % p . Q.5X>X>X>X>X>X>X5X>X>X^.9.. p . . p . 9.Q.>X>X>X>X5X>X>X>X>X7XQ.. p . .                         ",
"                        - 5 k . Q.7X>X>X>X5X>X5X>X>X5XQ.9.. k - - k . 9.Q.5X>X>X>X>X>X>X>X>X5XQ.. k 5 2                         ",
"                        . % f . E.5X>X>X>X>X5X>X>X>X5XE.6.. p . . p . 9.Q.5X>X5X>X>X>X>X>X>X5XQ.. f % .                         ",
"                        b Z Z T ^.5X>X5X>X>X>X>X>X>X5X^.r.. K Z N K . r.(.>X>X>X5X>X>X>X5X>X5X(.T Z Z b                         ",
"                . w . @.T.|.].|.-X>X>X5X>X>X>X5X5X>X>X>X.X].].].].].]..X-X>X>X>X5X>X>X>X>X>X5X-X].]..XT.*.. t .                 ",
"                . t . 4.%X7X5X5X5X>X>X>X>X>X>X>X>X>X>X>X>X5X5X>X5X5X5X>X5X>X>X>X>X>X>X5X>X>X>X>X5X5X5X%X1.. t .                 ",
"                . t . 1.+X>X-X>X>X>X>X>X>X>X>X>X>X>X>X>X5X5X5X5X5X5X5X>X>X>X5X>X>X>X>X>X5X>X>X>X>X-X>X+X;.. t .                 ",
"                . t . ;.+X5X>X>X>X>X5X>X>X>X5X>X>X5X>X*XP.V.A.V.V.A.V.T.*X>X>X>X>X5X>X>X>X>X>X5X>X>X5X+X1.. t .                 ",
"                . t . ;.+X5X5X>X>X5X>X>X>X>X>X>X>X>X5X].p.T { [ [ [ T u.].5X>X>X>X>X5X>X>X>X>X>X>X>X5X+X;.. t .                 ",
"                t Z . 4.+X>X>X>X>X>X>X>X5X>X5X>X>X>X>XQ.6.. 5 . . w . 4.Q.>X>X>X>X5X>X>X>X>X>X>X>X5X>X+X4.. b t                 ",
"                . . . [ +X5X>X>X>X>X>X5X>X5X>X>X5X>X5XQ.1.. . . . . . ;.Q.5X>X>X>X>X5X>X5X>X>X>X>X>X5X+X[ . . .                 ",
"                ;.e.@.u.%X>X>X>X5X>X>X>X>X>X>X>X>X>X>X(.a.@.w.9.9.9.=.a.(.5X>X>X>X>X>X>X>X>X>X5X>X>X>X%Xp.@.e.4.                ",
"        . t . ;.l.I.V.T.-X>X>X>X>X>X>X>X>X>X5X>X>X>X5X*XT.A.F.F.F.F.A.T.-X>X5X>X>X>X5X>X>X>X5X>X>X>X>X>XP.V.T.l.;.. t .         ",
"        . p . 4.F.7X5X>X>X>X5X>X>X>X>X5X>X>X>X>X>X>X>X>X5X>X5X>X5X>X5X5X>X>X>X>X>X>X>X>X>X>X>X>X5X>X>X>X5X>X7XF.1.. p .         ",
"        . p . 4.F.5X>X5X>X5X>X5X5X5X>X5X5X5X5X>X5X5X5X>X>X5X5X>X>X>X5X>X5X>X5X>X5X5X5X>X5X5X5X>X5X5X5X>X5X>X5XF.1.. p .         ",
"        . t . ;.n.%XOX+X+X+X+X+X+X+X+X+X+X+X+X+X+X+X+X+X+X+X+X+X#X+X#X+X+X+X+X+X+X+X+X+X+X+X+X+X+X+X+X+X+X+X%Xn.*.. t .         ",
"        . . . p / 1.;.;.;.1.;.1.;.1.;.;.1.;.;.1.1.*.1.;.1.*.1.;.;.1.;.;.1.;.1.;.1.;.1.;.;.1.;.;.1.*.1.;.;.;.1.^ t . . .         ",
"        . . . . . . . . . . . . . . . . . . . . . . . . . . . . . . . . . . . . . . . . . . . . . . . . . . . . . . . .         ",
"        . . . . 5 p t t t t t t t t t t w p p p t t t t t t t t t t t t t t t w p p p p t t t t t t t t t t t 5 * . . .         ",
"        . . . . . . . . . . . . . . . 2 P U I P - . . . . . . . . . . . . . . - P I I L 5 . . . . . . . . . . . . . . .         ",
"                                . 5 . W k.T.T.b.z . - .                 . - . z b.P.E.k.! . 5 .                                 ",
"                                . t . [ F.7X7X.Xb . - .                 . - . b .X7X7XF.[ . t .                                 ",
"                                . t . [ P.7X7X.Xb . - .                 . 2 . z .X7X7XP.[ . t .                                 ",
"                                . w . [ x.^.^.M.Z . - .                 . - . Z m.^.^.x./ . w .                                 ",
"                                        S M M N                                 N M l S                                         ",
"                                        % 5 w 2                                 2 w 5 -                                         ",
"                                        - - - -                                 - - - -                                         ",
"                                        . . . .                                 . . . .                                         "
};
