/* XPM */
static char *_4ff1db70fce490ce339c4b81ae8a1bbUpMc3StCxHh26lPd[] = {
/* columns rows colors chars-per-pixel */
"64 64 68 1 ",
"  c None",
". c #160206",
"X c #1D0308",
"o c #1F0308",
"O c #23040A",
"+ c #2A050B",
"@ c #2A060D",
"# c #2B060D",
"$ c #3B0B12",
"% c #3C0B12",
"& c #470E17",
"* c #4D1018",
"= c #58131D",
"- c #621621",
"; c #631621",
": c #651722",
"> c #6C1925",
", c #6D1925",
"< c #711B26",
"1 c #7A1D2A",
"2 c #7B1D2A",
"3 c #7C1D2A",
"4 c #801F2C",
"5 c #801F2D",
"6 c #811F2D",
"7 c #872130",
"8 c #8B2331",
"9 c #8F2432",
"0 c #902432",
"q c #902433",
"w c #952635",
"e c #962635",
"r c #972635",
"t c #972636",
"y c #A1293A",
"u c #A42A3B",
"i c #A62B3B",
"p c #A62B3C",
"a c #A72B3C",
"s c #AA2D3D",
"d c #AE2D3E",
"f c #AF2D3E",
"g c #B12E40",
"h c #B32F41",
"j c #B43041",
"k c #B53042",
"l c #B73042",
"z c #B93043",
"x c #BA3143",
"c c #BB3244",
"v c #BC3244",
"b c #BD3244",
"n c #BE3245",
"m c #BF3245",
"M c #BF3345",
"N c #C03345",
"B c #C03347",
"V c #C13347",
"C c #C23347",
"Z c #C33447",
"A c #C33448",
"S c #C53548",
"D c #C63548",
"F c #C73549",
"G c #C83549",
"H c #C93549",
"J c #CA364A",
"K c #CB364A",
/* pixels */
"         @4fCMvvxcCCd4+                  @4fCCvvvvCCf4+         ",
"         +4dCCvvMcMCd4+                  @4fCMvvvvvCd4+         ",
"          3dCMvvMxMCd3                    3dCMxvvvNSd3          ",
"          1dCCvvccCCd2                    1dCCvvvxCCd1          ",
"    X%**$=8hCMxvxcCMh8=%**%X        X%**%=8fCMxMvvMCf8=$**%X    ",
"    %<9t8tijMMvvMcMMhat8t9<%        %<9t8tazMMccvvMMxit0t9<%    ",
"    *9jMMzxxxMvvMxvvMzzzMj9*        *9jMxzzxcMMxvvvvcxhxMj0*    ",
"    *tMJSCMMcxvvxMxvvMCSJMt*        *tMJDCMMczcxvvxvMMZDJMt*    ",
"    %8xSCMMxMMxcMxccMxMCSx0%        $0xSCMMxxcMMMccxcMMMDx8%    ",
"++  =wxVMxcxxcxMcxMxxMxMCxt=  ++++  =tzCMxMcMcxcxxMMcccMCxt=  ++",
"44228axMMcMMcxcMcMxMccMMMxa8134444318izMxMxcMxcxcMxcMzcMMxa81344",
"fdddhzxMxcxcMMcxxMccMxxcMxhhddfdfdddhhxMMcxMcxMMcxMcxMxMMchhddff",
"CCCCCMxcMccxxxcMcMxxxMMcxxMCCCCCCCCCCMxcxcMxcMxcMMxcMxccxMCNCCCC",
"CMMCMMMxxxMMcMcxxMcMccxxcMMMCMMMMCMCMMMcxMcxcxMcxcxMcxMxcxMNCMMC",
"cxcMMxcxcMxcMcMxxcMcMxcMxMccMxcxvvvvcxccccMMMMxxcxcMcMxMccvvvvxv",
"MMcxcxMMcxMcxxMcMcxxMcxMccxMcxMMvvvvcMMxMxxcxccMMMcxxMccxMvvvvvv",
"xcMxccMxxcMMxcMxcMxcMMxccMxxcMxcxMMcMccxMccxcxxMxxcMcMxxcMxcMMxc",
"xMcxMxMcMcxcxMcxcxMcxcxMxMcMcxMcccxxxxMMxxMMMMcccMcxxMcMcxMcxcxM",
"ccMMxMxcMxcxccMMMMxxcxcMxcMcMMxxMxcMcMxccMxcxcMxMcMxxcMcMMxxcxcM",
"MxxcccxMcxMMMxxcxccMMMcxMcxxxccMMcxMcxMccxMcxMcxxxMcMcxxxccMMMcx",
"cxxMMMxcMxcccxxMMccxxxcMxcMMMccxxxcMcMxxMMxcxcMMcMxcMxcMMccxxxcM",
"MMccxcxMcxMxMMccxxMMcMcxMcxcxxMMcMcxxMcMxcxMMcxccxMcMcxMxxMMcMcx",
"xcMxcxcMcMxMxcMxcMxcMcMxMxcxcMxcMcMxxcMccxcMMxcxMMxxxxcccMxcMcMx",
"xMcxMMcxxMccxMcxcxMcxxMccxMMcxMcxxMcMcxxMMcxcxMMxccMcMMxcxMcxxMc",
"ccMxMxccMMxcxcMMMMxcxcMMxxcMcMxxcMxcMMxccMxxcMxcxMMcMccxMxcMxxcM",
"MxMccxMxxcxMMcxcxcxMMcxccMcxxMcMcxMcxcxMxMcMcxMcccxxxxMMMcxMcMcx",
"xMxccMxMcxcMMxcxcxcMMxcxMcMxxcMcMMxxcxcMxcMcMMxxMxcMcMxcxxccMcMx",
"ccxMxMccMMcxcxMMMMcxcxMMxxMcMcxxxccMMMcxMcxxxccMMcxMcxMccMMxxxMc",
"MxcMxcMxxcMxcMxcxcMxcMxccMxcMxcMMccxxxcMxcMMMccxxxcMcMxxxMMcccMx",
"McxMxMcxxMcxcxMcxMcxcxMccxMcMcxMxxMMcMcxMcxcxxMMcMcxxMcMccxxMxMc",
"xxccccMMccMMMMxxccMMMMxxMMxxxxcccMxcMcMxMxcxcMxcMcMxxcMcMxcMxMxc",
"cMMxMxxcMxxcxccMMxxcxccMxccMcMMxcxMcxxMccxMMcxMcxxMcMcxxMcxMccxM",
"McxMxMMxMccxcxxMvvvvvvvvvvvvvvvvMxcMxxcMcMxxcMxcMMxcvvvvvvvvvvvv",
"xxMzccxMxxMMMMccvvvvvvvvvvvvvvvvMcxMcMcxxMcMcxMcxcxMvvvvvvvvvvvv",
"MCCCCMvxcMxcxcMxvvvvvvvvvvvvvvvvxxccMcMxxcMcMMxxcxcMvvvvxcMCCMCM",
"CCVVVvvvcxMcxMcxvvvvvvvvvvvvvvvvcMMxxxMcMcxxxccMMMcxvvvvMxvVCCCC",
"dffdghMvMxcMxcMMvvvvvvvvvvvvvvvvxMMcccMxxcMMMccxxcMxcMvvMchhdddd",
"34318axMxMcxMcxcvvvvvvvvvvvvvvvvccxxMxMcMcxcxxMMxMcxcxvvMxa82244",
"@+  =wxVMxMxMxcxvvvvvvvvvvvvvvvvMxcMxMxcMxcxcMxcccMMMxcMCzt=  ++",
"    $0xSMMMccxMMvvvvvvvvvvvvvvvvMcxMccxMcxMMcxMcMxxcxMMMSx0$    ",
"    *tCJSCMMxcxcvvvvvvvvvvvvvvvvxxcMcMxxccMxcMxxMcccMMCDJMt*    ",
"    *0jMxzxxxMMcvvvvvvvvvvvvvvvvcMcxxMcMMxMcxMcMxxMxxxxxMh9*    ",
"    %<9t0tahMMcxvvvvvvvvvvvvvvvvMcMxxcMcxMxcxcMccMMMhat9t9<%    ",
"    X$**$=8gCMcMvvvvvvvvvvvvvvvvxxMcMcxxccxMMcxxcxMCh8=%**%X    ",
"          3hCCvxvvvvvvvvvvvvvvvvcMxcMxcMMxcMxczMMvCCd1          ",
"          4hGGCCBvvvvvvvvvvvvvvvcxMcMcxMMcxMMcMMMCSJj6          ",
"         #4fSZCvvvvvvvvvvvvvvvvvMMxxxxccxxccxcMMMMVDf6@         ",
"         O,taiydhvvvvvvvvvvvvvvvxccMcMMxcMMxcMzhayaat,O         ",
"         .&;,;:7aMMMxcMxccMxvvvvxMMcMccxcxccMCMg7:;,;&.         ",
"               :uMVMxMccMxMcvvvvccxxxxMMMMcMxVMt:               ",
"               ;uVDCMMxcxMxcvvvvMxcMcMxcxcMMCDVa;               ",
"               ,aSJSCMMxccxMvvvvMcxMcxMcccMVVJDa,               ",
"               ;thhdfjxvMxvvvvvvxxcMxcMxMxzfdhht;               ",
"               &,4419ixCMcvvvvvvcMcxMcxMMza8344,&               ",
"               .O@  =txCvvvvvvvvMcMxMxxMCzt=  @O.               ",
"                    $9xSVvvvvvvvxxMcxMMCSv8$                    ",
"                    *tMJSCMMcxxMcMxcMMVSJMt*                    ",
"                    *0jCxzzccMcccxMxxxxxMj9*                    ",
"                    %<0t0tihMMMxMMMMhaw0t9<%                    ",
"                    X%**$=8hCMcxxcMMh8=$**%X                    ",
"                          1dCMMMxMCCd2                          ",
"                          3dCMxcccMCd3                          ",
"                         +4dCCMcMxMCd4@                         ",
"                         @4dCMxxMcCCf4+                         "
};
