/* XPM */
static char *_5ecc722677946d5908e81cc0f5bfc7cX4cEl9xb7v4AypkE[] = {
/* columns rows colors chars-per-pixel */
"64 64 62 1 ",
"  c #301E2F",
". c #321F2F",
"X c #341F2F",
"o c #301E30",
"O c #34202F",
"+ c #36202F",
"@ c #37212F",
"# c #38212F",
"$ c #39222F",
"% c #3A222F",
"& c #3C222F",
"* c #3C232F",
"= c #3E232E",
"- c #3E242E",
"; c #40242E",
": c #41242E",
"> c #43252E",
", c #43262E",
"< c #47272D",
"1 c #49282D",
"2 c #4E2A2D",
"3 c #4F2A2D",
"4 c #522B2C",
"5 c #522C2C",
"6 c #532C2C",
"7 c #572D2C",
"8 c #5A2F2B",
"9 c #5B2F2B",
"0 c #5E312B",
"q c #5F312B",
"w c #60312A",
"e c #693529",
"r c #6A3629",
"t c #6D3728",
"y c #6F3828",
"u c #743A27",
"i c #753A27",
"p c #773B27",
"a c #783B27",
"s c #793C26",
"d c #7D3E25",
"f c #713928",
"g c #813F25",
"h c #984A1F",
"j c #994A1F",
"k c #9C4B1E",
"l c #9C4C1E",
"z c #814025",
"x c #824025",
"c c #844124",
"v c #884323",
"b c #8A4323",
"n c #8A4423",
"m c #8C4422",
"M c #8F4622",
"N c #914621",
"B c #924721",
"V c #934821",
"C c #954820",
"Z c #944821",
"A c #974920",
"S c #984A20",
/* pixels */
"BBBBBBBZZBi4@.=0gZjBBBBBBBBBBBBBBBBBBBBBBBBBBBBBBBBBBBBBBBBBBBBB",
"BBBBBBBZZMi4@.=0dBBBBBBBBBBBBBBBBBBBBBBBBBBBBBBBBBBBBBBBBBBBBBBB",
"BBBBBBBZjMi4@.=0ghBZBBBBBBBBBBBBBBBBBBBBBBBBBBBBBBBBBBBBBBBBBBBB",
"BBBBBBBZSMi4@.=0djZBBBBBBBBBBBBBBBBBBBBBBBBBBBBBBBBBBBBBBBBBBBBB",
"BBBBBBBZZMi5@.=0gBhBBBBBBBBBBBBBBBBBBBBBBBBBBBBBBBBBBBBBBBBBBBBB",
"BBBBBBBZjMi4@.=0djBhBBBBBBBBBBBBBBBBBBBBBBBBBBBBBBBBBBBBBBBBBBBB",
"BBBBBBBZSMi4@.=0gZBBBBBBBBBBBBBBBBBBBBBBBBBBBBBBBBBBBBBBBBBBBBBB",
"BBBBBBBZZMi4@.=0dZjBBBBBBBBBBBBBBBBBBBBBBBBBBBBBBBBBBBBBBBBBBBBB",
"BBBBBBBBjBi4@.=0dZjhBBBBBBBBBBBBBBBBBBBBBBBBBBBBBBBBBBBBBBBBBBBB",
"BBBBBBBBZMi4@.=0djVBBBBBBBBBBBBBBBBBBBBBBBBBBBBBBBBBBBBBBBBBBBBB",
"BBBBBBBhSMi4@.=0gZZZBBBBBBBBBBBBBBBBBBBBBBBBBBBBBBBBBBBBBBBBBBBB",
"BBBBBBBZZBi4@.=0djZBBBBBBBBBBBBBBBBBBBBBBBBBBBBBBBBBBBBBBBBBBBBB",
"BZBBBBBBVBu4@.=9ghBBZBBBBBBZBBBBBhBBBBhBBZBBBBBBBBBZBBBhBZBBBBBZ",
"BSjZVhjhlVs7@.=wghjjZZjBVjBhjVVjjBjBjZBjZBjBjZjBBhBhVhjVZBjZZjBh",
"jBZhhBBjjVi5@.=0djhjjBZjjZZhVjjVBhBhZZjZjhBjBhBhjZZhjBBjjBBjjBZh",
"dggdzdggcde2%@;7uggggdgddgddgddggdgddgdddgdggdgddgddgddggdgddgdg",
"00000000w951;=;270w000000000000000000000000000009000000000000000",
"========%=;;;;;=;=%========================-====;===============",
"..........X%;=%%X.........................@@%%%%.......o........",
"@@@@@@@@@@%%%%%%%@@@@@@@@@@@@@@@@@@@@@@@@@=;;;;-%%X%@@%@@@@@@@@@",
"4444444444444444444444444444444444664446552<;;;<2455554444544444",
"iiiiiiiiiiiiiiiiiiiiiiiiiiiiiiiiiiiuiiiisfw1%%;6eisiiiuiiiiiiiii",
"MMMMMBMMMMMMMMBMMMMMMMMMMMMMMMBMMMMMBMMBjMi4@.;9dBZBBMMBMMBMMBMM",
"jZSjZZjZSjZSjZZSjVjjZjVjSjZSjZZSVhjVZZhhjZs5@.=0cjjjZSZjjZZjZZjZ",
"ZZZZZZZZZZZZZZZZZZZZZZZZZZZZZZZZZZhBBZZZjBi4%.=0shjjZZZZZZZZZZZZ",
"BBBBBBBBBBBBBBBBBBBBBBBBBBBBBBBBBZBBBBBZZMi4@.=0gjVBBBBBBBBBBBBB",
"BBBBBBBBBBBBBBBBBBBBBBBBBBBBBBBBBBBBBBBZjBi4@.=0dZZZBBBBBBBBBBBB",
"BBBBBBBBBBBBBBBBBBBBBBBBBBBBBBBBBBBBBBBZZMi4@.=0djZZBBBBBBBBBBBB",
"BBBBBBBBBBBBBBBBBBBBBBBBBBBBBBBBBBBBBBBZjMi4%.=0ghVBBBBBBBBBBBBB",
"BBBBBBBBBBBBBBBBBBBBBBBBBBBBBBBBBBBBBBBZZMi4@.=0gBjBBBBBBBBBBBBB",
"BBBBBBBBBBBBBBBBBBBBBBBBBBBBBBBBBBBBBBBZZMi4@.=0dBVBBBBBBBBBBBBB",
"BBBBBBBBBBBBBBBBBBBBBBBBBBBBBBBBBBBBBBBZhMi4@.=0ghBhBBBBBBBBBBBB",
"BBBBBBBBBBBBBBBBBBBBBBBBBBBBBBBBBBBBBBBBSMi4@.=0ghBBBBBBBBBBBBBB",
"BBBBBBBBBBBBBBBBBBBBBBBBBBBBBBBBBBBBBBBBZBi4@.=0djhBBBBBBBBBBBBB",
"BhZhBhjhBhZhBhVjBhZhBhjhBhZhBhjhZjZhhZhZSVs5@.%wzZjZjZhZhZhZhjhZ",
"jBjBhBVjhBjVjVjVjBjBhBZjjBjBhBVjjZZjBjZjkVs5@.=0gjjhBjBjBjBjBZjB",
"bbzbbnvnbbzbnbcbbbzbbnvnbbzbnnvnbnbnbbbbBzu5% -9sBMbgmnnbnbbbbgm",
"eeeeeeeeeeeeeeeyeeeeeeeeeeeeeeeeeeeeeeeeee7<;=-20eteeeeeeeeeeeee",
"<<1<<<<<<<1<<<<<<<1<<<<<<<1<<<<<<<<<<<<<<<<;;;;<<<<<<<<<<<<<<<<<",
"...%X...@.@%@@%@@..%XXXX...%XX...@XXXX.X@X%;;;=%%..XXXXX.@XXXX.@",
"XXOO..XXo%%%=;=%@..XXXXX@.XXXXOO..XX@..XX%.@%%@@%..%XX....OO..XX",
"<<<<<<<<<<;<;;;<<<<<<<<<1<<<<<<<<<<<<1<<<<<<<1<<<<<<<<<<<<<<<<<<",
"eeeeeeette9<;%=20tteeteeeeeeeeeeeteeteeeyeeeeeeeeeeeeeeeeeeeeeee",
"bbnbbbvbBcy4%%=9ibnbbvnnbgbbbbnbncnnzbbbvcbbvbbbvvmgbbbbnbnbnvnn",
"ZjBBhVjhjhi6..=0gjjjhVjVBjBhjZZjjZhVjZhBhVhVjVBBhBjZBjBhjBBhjVjV",
"jZjhVhjVjBi4%.=0gSjBBhBjhBjZhZjZBjBhZjBhBhBhhjhBBhBjhZjZhBhhZjBj",
"BBBBBBBBhMi4%.=0gjhBBBBBBBBBBBBBBBBBBBBBBBBBBBBBBBBBBBBBBBBBBBBB",
"BBBBBBBZhMi4@.=0gBhBBBBBBBBBBBBBBBBBBBBBBBBBBBBBBBBBBBBBBBBBBBBB",
"BBBBBBBZSBu4Xo;0gBjhBBBBBBBBBBBBBBBBBBBBBBBBBBBBBBBBBBBBBBBBBBBB",
"BBBBBBBZZMu4%o=wdjZBBBBBBBBBBBBBBBBBBBBBBBBBBBBBBBBBBBBBBBBBBBBB",
"BBBBBBBZSMi4%o;9dZZBBBBBBBBBBBBBBBBBBBBBBBBBBBBBBBBBBBBBBBBBBBBB",
"BBBBBBBZSMu4Xo;wgZSZBBBBBBBBBBBBBBBBBBBBBBBBBBBBBBBBBBBBBBBBBBBB",
"BBBBBBBZZMi5%@=0zZZZBBBBBBBBBBBBBBBBBBBBBBBBBBBBBBBBBBBBBBBBBBBB",
"BBBBBBBZSBi5XX#wgZZZBBBBBBBBBBBBBBBBBBBBBBBBBBBBBBBBBBBBBBBBBBBB",
"BBBBBBBBZBi5@O-qgZSBBBBBBBBBBBBBBBBBBBBZBBBBBBBBBBBBBBBBBBBBBBBB",
"BZhBBhBBjBi5@o-qgZZZZBSZBBZZZZZZZZZZBBhBZVZBjBZBZBhBBZZZZZZZZZZZ",
"SZZSSZSSjjs4@.=0zSSSSSZZSZSZSZSZhZZjZZjSZZSZSSZjSVSZSZSZjBVSSZZj",
"BMBBMMBVhnu4%.=9dZZBNBBBBMMMBMMBMBMBBMMMBBBMMMMBBMBBBMBBBBMBBMMB",
"ifiiiffaii01=%;5eiaifiiiiifiiiiiiiiyiyiifiiiiiiifiiifiiifiiiuuiu",
"45555557442<-;;<466645455447545744575744475544444455444544555444",
"%###&#####;;<;;;&###&##+###&########%+#####&&##+###&###&&###%+#&",
"=#&&&&**#;&;;;;<&#&&&&&+#&**&#&&&&&&%=**&#&&&&&+&&&&&#&&&&&+%=&&",
",,<<,;,;;<;,;,;<;,;,,,,,;,<;,,>>,,,>,,;<;,;,,,,,;,<;;,;,,,<,;,;<",
"&<;;;,;<;;,;,;<&,;,,,,,<,;,;,,&>,,,&;,<;,;,,,,,<,;,;,;,,,,,;,;,;"
};
