/* XPM */
static char *e1b8437044814b8b8092d5743f67f8e6zPn5PXAxWjoBvGnf[] = {
/* columns rows colors chars-per-pixel */
"64 64 121 2 ",
"   c #020102",
".  c #0C0000",
"X  c #030309",
"o  c #080608",
"O  c #0A0C0E",
"+  c #071316",
"@  c #0C1417",
"#  c #00151B",
"$  c #0E1619",
"%  c #0A1A1F",
"&  c #121112",
"*  c #191817",
"=  c #101619",
"-  c #13191C",
";  c #1B1B1B",
":  c #0F1D21",
">  c #161F22",
",  c #00272F",
"<  c #0D272E",
"1  c #162124",
"2  c #192225",
"3  c #142529",
"4  c #1D2A2E",
"5  c #002531",
"6  c #002B36",
"7  c #0C2B32",
"8  c #002F39",
"9  c #162B30",
"0  c #1E2E33",
"q  c #00323C",
"w  c #0E343D",
"e  c #173036",
"r  c #1A3136",
"t  c #13353D",
"y  c #1B383F",
"u  c #252626",
"i  c #242B2D",
"p  c #2A2C2C",
"a  c #293133",
"s  c #23353A",
"d  c #28363A",
"f  c #26393E",
"g  c #343534",
"h  c #3A3B3B",
"j  c #143941",
"k  c #1D3B43",
"l  c #233E45",
"z  c #2B3E43",
"x  c #333E41",
"c  c #294147",
"v  c #204048",
"b  c #2D444A",
"n  c #3F4141",
"m  c #30474D",
"M  c #3C4749",
"N  c #31494F",
"B  c #354B51",
"V  c #3B4D52",
"C  c #3E5054",
"Z  c #444545",
"A  c #4B4C4B",
"S  c #445155",
"D  c #495051",
"F  c #45555A",
"G  c #4A585B",
"H  c #555655",
"J  c #585857",
"K  c #53595A",
"L  c #5C5D5C",
"P  c #5F605F",
"I  c #525E61",
"U  c #576365",
"Y  c #5E6262",
"T  c #5C6668",
"R  c #5F696B",
"E  c #646564",
"W  c #636C6D",
"Q  c #6C6D6C",
"!  c #6F716F",
"~  c #666E70",
"^  c #677072",
"/  c #6C7474",
"(  c #737473",
")  c #717778",
"_  c #747A7B",
"`  c #7A7D7C",
"'  c #7F807E",
"]  c #81827F",
"[  c #7E8382",
"{  c #848685",
"}  c #868886",
"|  c #868A88",
" . c #8B8D8C",
".. c #8D908E",
"X. c #8F918F",
"o. c #8E9190",
"O. c #8F9391",
"+. c #909391",
"@. c #929391",
"#. c #939493",
"$. c #939593",
"%. c #959795",
"&. c #979896",
"*. c #969996",
"=. c #979997",
"-. c #989996",
";. c #989997",
":. c #999B99",
">. c #999C99",
",. c #9A9C9A",
"<. c #9C9D9A",
"1. c #9D9F9D",
"2. c #9E9F9C",
"3. c #9EA09D",
"4. c #9FA19F",
"5. c #A1A19E",
"6. c #A2A3A0",
"7. c #A3A4A1",
"8. c #A5A5A2",
"9. c #A4A5A3",
"0. c #A6A7A4",
/* pixels */
"$.$.$.$.$.$.$.$.$.$.$.$.$.$.$.$.$.$.$.$.$.$.$.$.$.$.$.$.$.$.$.$.$.$.$.$.$.$.$.$.$.$.$.$.$.$.$.$.$.$.$.$.$.$.$.$.$.$.+.%.#.$.$.$.",
"$.$.$.$.$.$.$.$.$.$.$.$.$.$.$.$.$.$.$.$.$.$.$.%.$.$.$.$.$.%.$.$.$.$.$.$.$.$.$.$.$.$.$.$.$.$.$.%.$.$.$.$.$.$.$.$.$.$.%.+.$.$.$.$.",
"$.$.$.$.$.%.;.*.*.*.;.*.%.%.*.:.*.*.*.*.;.*.*.*.:.%.*.*.*.*.*.*.;.*.*.*.:.*.;.*.*.*.*.;.;.*.;.*.:.%.*.*.*.*.*.*.;.*.%.%.$.$.$.$.",
"$.$.$.$.%.*.:.,.:.:.:.:.:.:.:.:.:.:.:.:.:.:.:.:.:.:.:.:.:.:.:.,.:.:.:.:.:.:.:.:.:.:.:.,.:.:.:.:.:.:.:.:.:.:.:.<.:.:.*.%.$.$.$.$.",
"$.$.%.%.+. .} { } } } { { | } } { } } } } } } } { { { { } } { } } } { { { { { | { } } } } } } { { { { { } } { { { {  .+.$.%.$.$.",
"$.$.%.*. .( P H J L L L L L L L L L L L L L L L L L L L L L L L L L L L L L L L L L L L L L L L L L L L L L L L J E (  .*.%.$.$.",
"$.$.*.:.| P u   & ; ; ; ; ; ; ; ; ; ; ; ; ; ; ; ; ; ; ; ; ; ; ; ; ; ; ; ; ; ; ; ; ; ; ; ; ; ; ; ; ; ; ; ; ; ; &   u E { :.*.$.$.",
"$.$.*.:.} J                                                                                                         H { :.*.$.$.",
"$.$.*.:.{ L O                                                                                                     & J } <.*.%.$.",
"$.$.*.:.} L ;     o & * ; ; ; ; ; ; ; ; ; ; ; ; ; ; & o                 o                 o       X               ; L } :.*.$.$.",
"$.$.;.,.} L ;     & h H P L L L L L L L L L L L P L Z u       o   o   o   o X o o   o   o   o   o     o   o       ; L } :.:.$.$.",
"$.$.;.,.} L ;     * H _  . .} { } } { { { } } }  .{ E p       o o   o   o   o     o   o   o   o   o o   o         ; L { :.*.$.$.",
"$.$.;.:.} L ;     ; E  .5.3.:.:.:.:.:.:.:.,.,.,.3.$.( g           o   o   o   o o   o   o   o   o   o     o       ; L } :.*.$.$.",
"$.$.*.:.} L ;     ; L  .3.,.*.*.*.*.%.:.*.*.*.,.3.$.! g         o   o   o   o     o   o   o   o   o   o o   o     ; L } :.*.$.$.",
"$.$.*.:.{ L ;     ; L } :.*.%.$.$.$.$.$.$.$.$.*.,.X.Q g       o   o   o   o   o o   o   o   o   o   o     o       ; L { :.*.$.$.",
"$.$.;.:.{ L ;     ; L { :.*.$.$.$.$.$.*.O.$.$.*.,.X.Q g         o   o   o   o     o   o   o   o   o   o o         ; L { :.*.$.$.",
"$.$.%.:.{ L ;     ; L } ;.;.$.$.$.$.$.$.$.$.$.$.,.X.! g       o   o     o o     o   o   o   o X o   o   o   o     ; L } :.*.$.$.",
"$.$.%.:.} L ;     ; L { >.;.$.$.$.$.$.$.$.$.$.*.,.X.Q g         o   o             o       o   o   o   o   o       ; L } :.;.$.$.",
"$.$.*.:.{ L ;     ; L } >.*.$.$.$.$.$.$.$.$.$.$.,.X.Q g                                 o o o   o   o   o         ; L } :.;.$.$.",
"$.$.:.:.} L ;     ; L } >.*.$.$.$.$.$.$.$.$.$.;.,.X.Q g                                 O o   o   o   o   o       ; L { :.*.$.$.",
"$.$.*.:.} L ;     ; L } ;.;.$.$.$.$.$.$.$.$.$.$.,.X.! g       O @ = = @ > i g g g g u &         o   o   o         ; L } :.*.$.$.",
"$.$.*.:.} L ;     ; L { ,.;.$.$.$.$.$.$.$.$.$.*.,. .Q g       - 4 s r 9 Z K Q Q ( Q D u           o   o   o       ; L } :.*.$.$.",
"$.$.*.,.{ L ;     ; L { ,.;.$.$.$.$.$.$.$.$.$.%.,.X.Q g       1 d b c k S /  .;.;. .Q g       o o   o   o   o     ; L } :.*.$.$.",
"$.$.*.,.} L ;     ; L { >.;.$.$.$.$.$.$.$.$.$.%.:.X.Q g       1 f b l j F ` ;.9.0.;.( g           o   o   o       ; L { :.;.$.$.",
"$.$.*.:.} L ;     ; L { :.*.$.$.$.$.$.$.$.$.$.%.,.o.Q g       : e k q q C _ *.9.9.*.( g       o   o   o   o       ; L } :.*.%.$.",
"$.$.*.:.} L ;     ; L } :.;.$.$.$.$.$.$.$.$.$.%.,.o.Q g       2 z B m c G ) X.*.%. .W g       o o   o   o         ; L } :.*.$.$.",
"$.$.*.:.} L ;     ; L } :.*.$.$.$.$.$.$.$.$.$.%.,.o.Q g       g K ~ ^ W ^ / ) ) [ / K i           o   o   o       ; L } :.*.$.$.",
"$.$.*.:.{ L ;     ; L } :.;.$.$.$.$.$.$.$.$.$.%.,.o.Q g       Z ( ..o...} W G C F S x ;         o   o   o         ; L { :.*.$.$.",
"$.$.;.:.{ L ;     ; L } :.*.$.$.$.$.$.$.$.$.$.%.,.o.Q g       A ' ,.5.5. .W c 6 t k 9 @       o X o   o   o       ; L } :.:.+.%.",
"$.$.;.:.} L ;     ; L } :.*.$.$.$.$.$.$.$.$.$.%.,.+.Q g       A } 3.0.7.X.W k 5 q t < +     o   o   o   o   o     ; L { :.*.%.+.",
"$.$.;.:.{ L ;     ; L } :.*.$.$.$.$.$.$.$.$.$.%.,.X.Q g       A ` *.3.,. .W N w v c 0 =     o o   o   o   o       ; L { :.%.+.%.",
"$.$.*.:.| L ;     ; L { :.*.$.$.$.$.$.$.$.$.$.%.,.X.Q g       n W { { { ` ^ U I T K M 2         o   o   o         ; L { :.;.%.+.",
"$.$.*.:.{ L ;     ; L } :.*.$.$.$.$.$.$.$.$.$.%.,...Q g       a D U U I T / [ { } ` U p       o   o   o   o       ; L } :.*.$.$.",
"$.$.*.:.} L ;     ; L | :.;.$.$.$.$.$.$.$.$.$.%.,...Q g       1 s l k t S ) o.1.5.+.Q g         o   o       o     ; L } :.*.$.$.",
"$.$.*.:.} L ;     ; L { :.;.$.$.$.$.$.$.$.$.$.%.,.X.Q g       % 7 w 6 5 V ) ;.0.9.;.( g                           ; L } :.;.$.$.",
"$.$.*.:.} L ;     ; L { :.*.$.$.$.$.$.$.$.$.$.%.,.X.Q g       % e k q 8 V ) *.7.5.$.( g                           ; L { :.*.$.$.",
"$.$.;.:.} L ;     ; L { :.*.$.$.$.$.$.$.$.$.$.%.,.X.Q g       i M F F V I / } o.X.{ E g       O @ - - - $ @ o     ; L } :.*.$.$.",
"$.$.*.:.} L ;     ; L } :.*.$.$.$.$.$.$.$.$.$.%.,.X.! g       h R _ ` ) ) / W ~ / W D u       - 4 d s s 0 > o     ; L } :.*.$.$.",
"$.$.;.:.} L ;     ; L } :.*.$.$.$.$.$.$.$.$.$.*.,.X.Q g       A ) $.,.$.| ~ V c N m d -       1 s N m b z 4 o     ; L } :.*.$.$.",
"$.$.*.:.{ L ;     ; L } :.;.$.$.$.$.$.$.$.$.$.$.,...Q g       A { <.0.3.o.W l 5 q t < +       2 f b B B z 0 O     ; L { :.;.$.$.",
"$.$.;.:.{ L ;     ; L } :.*.$.$.$.$.$.$.$.$.$.%.,.X.! g       A ] 3.9.5. .W l 5 q t < @       1 l N N N c 4 O     ; L } :.*.$.$.",
"$.$.%.:.{ L ;     ; L { :.*.$.$.$.$.$.$.$.$.$.%.,.X.Q g       Z ) $.>.;.| W V c B N d -       1 f c N m z 4 O     ; L } :.*.$.$.",
"$.$.*.:.{ L ;     ; L } :.*.$.$.$.$.$.$.$.$.$.%.,.X.Q g       h T ) ` ) ) / W W ~ W D u       1 f b B m z 4 O     ; L } :.*.$.$.",
"$.$.:.:.{ L ;     ; L } :.*.$.$.$.$.$.$.$.$.$.%.,...Q g       i M F F C I ) } X.o.{ E g       2 f b m m z 4 O     ; L { :.*.$.$.",
"$.$.*.:.} L ;     ; L } ,.*.$.$.$.$.$.$.$.$.$.%.,.X.! g       % r k q q V ) *.5.7.%.! g       1 f b m m l 4 O     ; L } :.:.+.%.",
"$.%.*.:.} L ;     ; L } ,.*.$.$.$.$.$.$.$.$.$.%.,.X.Q g       % 7 w 8 5 V ) *.9.9.;.( h       2 f m B m z 4 O     ; L } :.*.%.+.",
"$.$.*.:.{ L ;     ; L } *.;.$.$.$.$.$.$.$.$.$.%.,.X.Q g       1 s c k t S ) $.3.3.+.Q g       1 f m m m z 4 O     ; L { :.*.$.$.",
"$.$.*.,.} L ;     ; L } ,.*.$.$.$.$.$.$.$.$.$.%.,. .Q g       i S U U K T / [ { } [ U p       1 f b B m z 4 O     ; L { :.;.$.$.",
"$.$.*.:.} L ;     ; L } :.*.%.+.$.$.$.$.$.$.$.%.:.X.Q g       Z W { } } ` ^ U I T K Z 2       1 f m m m z 4 O     ; L } ,.*.$.$.",
"$.$.*.:.} L ;     ; L } :.*.#.%.$.$.$.$.$.$.$.%.:.X.Q g       A ` *.3.<. .W m w v c r $       2 f b N m c 4 O     ; L } ,.*.$.$.",
"$.$.;.:.} L ;     ; L } :.*.$.$.$.$.$.$.$.$.$.%.<.X.Q g       A { ,.0.5.X.W k 5 q w < @       1 l b N m z 4 O     ; L } ,.*.$.$.",
"$.$.*.:.{ L ;     ; L { :.*.$.$.$.$.$.$.$.$.$.%.,.X.Q g       A ' ,.5.5. .W c 6 t y < @       2 f m N m z 4 O     ; L { :.*.$.$.",
"$.$.=.:.{ L ;     ; L } :.:.+.%.$.$.$.$.$.$.$.%.,.X.Q g       Z )  .$.$.{ W G C F V b ;       1 f b N b c 4 O     ; L } :.:.o.*.",
"$.$.%.:.{ L ;     ; L { :.*.%.+.$.$.$.$.$.$.$.%.,.X.Q g       g K W W W ^ ^ ) _ ] / K p       1 f b N B c 4 O     ; L } :.*.%.+.",
"$.$.*.:.{ L ;     ; L | :.*.#.$.$.$.$.$.$.$.$.%.,.X.Q g       2 z B b c G ) X.;.;. .Q g       1 f c B m z 4 O     ; L | :.*.$.$.",
"$.$.:.:.} L &     & J { :.;.$.$.$.$.$.$.$.$.$.%.,.X.Q g       # 7 t q 6 V ) %.5.9.$.Q g       % d c m c f 3       & J { :.;.$.$.",
"$.$.;.:.{ J         J { <.%.$.$.$.$.$.$.$.$.$.%.,.X.Q u         , t q 6 V / $.3.1.+.Q u         7 k v v e #         J { ,.*.$.$.",
"$.$.;.;.{ L u     u P { :.:.$.$.$.$.$.$.$.$.$.%.,.X.Q h     * i z V b c G ) O.,.<.X.Q h     * i c B V B m d ; .   u P } ,.;.$.$.",
"$.$.;.;. ._ P H H E (  .*.*.$.$.$.$.$.$.$.$.$.$.*.+.' E H H L E E W W R / { $.*.;.+.{ E H J L E E W ~ W W Y L J H P (  .*.*.$.$.",
"$.$.$.$.#. .{ { { {  .+.$.$.$.$.$.$.$.$.$.$.$.$.%.$.X.} { { } { }  .|  .| X.+.$.%.$. .{ { { } } }  . .}  .} } { { }  .$.$.$.$.$.",
"$.$.$.$.$.*.:.:.:.:.*.$.$.$.$.$.$.$.$.$.$.$.$.$.+.$.*.:.:.:.:.:.;.;.;.:.,.%.+.$.#.$.%.:.:.:.:.:.,.:.;.;.;.;.:.:.:.:.*.%.$.$.$.$.",
"$.$.$.$.%.*.*.:.;.;.%.$.$.$.$.$.$.$.$.$.$.$.$.$.$.$.%.*.;.*.*.*.;.;.%.*.%.%.$.$.+.$.%.;.*.*.*.;.*.*.*.%.;.*.*.;.;.*.%.$.$.$.$.$.",
"$.$.$.$.$.$.$.$.$.$.$.$.$.$.$.$.$.$.$.$.$.$.$.$.$.$.$.$.$.$.$.$.$.$.$.$.$.$.$.$.$.$.%.+.%.+.$.$.$.$.$.$.$.$.$.$.$.$.$.$.$.$.$.$.",
"$.$.$.$.$.$.$.$.$.$.$.$.$.$.$.$.$.$.$.$.$.$.$.$.$.$.$.$.$.$.$.$.$.$.$.$.$.$.$.$.$.$.$.%.+.%.$.$.$.$.$.$.$.$.$.$.$.$.$.$.$.$.$.$."
};
