/* XPM */
static char *fc8f9ead5bf742efd01a51e1b0e08b30YIREsI08ES1iiP2L[] = {
/* columns rows colors chars-per-pixel */
"64 64 46 1 ",
"  c black",
". c #030200",
"X c #060207",
"o c #0B030F",
"O c #0B0410",
"+ c #0F0516",
"@ c #100618",
"# c #100619",
"$ c #12071B",
"% c #12071C",
"& c #160922",
"* c #200C33",
"= c #210D34",
"- c #2E114A",
"; c #2F124D",
": c #30124E",
"> c #31134F",
", c #321351",
"< c #341353",
"1 c #341454",
"2 c #37155A",
"3 c #38155B",
"4 c #3C1761",
"5 c #43196C",
"6 c #451A6F",
"7 c #481B76",
"8 c #491B76",
"9 c #4A1C78",
"0 c #4B1C7A",
"q c #4C1C7B",
"w c #4D1D7D",
"e c #4E1D7E",
"r c #4E1D7F",
"t c #4F1E80",
"y c #501E82",
"u c #501E83",
"i c #511E83",
"p c #511E84",
"a c #521F85",
"s c #531F86",
"d c #531F88",
"f c #541F89",
"g c #542089",
"h c #55208B",
"j c #56208B",
"k c #57208D",
/* pixels */
"yyyytatttaarararryyyyyyyyyyyrrrrgrrrrrgrrrrrgrgrrrrgyyyyyyyyyyyy",
"yyyytttattttrarargyyyyyyyyyygrgrgrgrgrgrgrgrgrrqrgrryyyyyyyyyyyy",
"yyyyaaaaddaaaaddgygggryyyyyygrrrrgrrgrrrgrrgrgrggrggaaasaaayyyyy",
"yyyytaddddddddadygtggyyyyyyyrrgrrrrgrrgrrrggggggggggfafsfaayyyyy",
"yytatq977977979799799ryyyyrgrrrgrrrrrrrgwg9979798899797779qtaytt",
"yyaat41;>,,,,,,,,,:-26wggyrrrgrggrgggrrrgy62;:,,>:,,><,>;24qaata",
"yyad91& o#####+#$@  *4wgrrggrrrrrrrrrggggq4=  $@@###@##O &19data",
"yyad7;              $2qggrrrgrgrrggrrrrrjr3$              ;7ddtt",
"yyas7>o         ... %3wggrrgrggerrrgegegjr4$..           O>7aayy",
"yaaf7,#  Xo@####$$. =4wgegeeeerrgrrrregree4=..#######OX  #,9fayy",
"yyas7<#  o*-1<,,>>>>35ygeggrgregrrgrejejge63>>>>,,<<-*o  #,7fayy",
"yyaa7<#  #-5q97998899ryygeergerggrgrejeerrw98889779q5-#  #,7fayy",
"yyaa9,#  #19kjjajgggegerrreggreerrrgrrjrreejjgggsfjk91#  #,9aayy",
"yyaf7,#  #19jjaaeggejrggegerergrrgrgjrerrgeggegjsajjr,#  #,7fayy",
"yyad7,#  #,9agrrgeegeeregegregrgrrrrrjrjeeggrreeyyaa7,#  #,9ddyy",
"yyad7,#  #,7agrgegeeeggerrgergeegrgrrrregrreeggryyaf7,#  #,9aayy",
"yyda9,#  $,7ggrrrggrrrrgreggregryyyyyyyyyyyyyyyyyyaa7,@  $,7ggrr",
"yyad9,# .$,9rggrrrrrgrrrgerergeryyyyyyyyyyyyyyyyyyaf7,+  +,7gyyy",
"yyaa7>  ..>8ggqrggrgrrgrgrereeggyyyyyyyyyyyyyyyyyyad9:   .,7agyy",
"yydd7>  ..-8ggrgrrrrgrgrergggrreyyyyyyyyyyyyyyyyyyad9:    ;9agyy",
"rryg73*#$=39rjrrrggrrrrggreeerrgyyyyyyyyyyyyyyyyyyaa92*%#=29aayy",
"grggr643346wjrjrrrrrrgrrergrggeeyyyyyyyyyyyyyyyyyyaar643336raayy",
"rryyrqrreeererrgrgrgrrrgegrgregryyyyyyyyyyyyyyyyyyyyrrrqryryyyyy",
"rgyyyggjjjjrjrrgrrrrggrrrgeergeryyyyyyyyyyyyyyyyyyyygygggjayyyyy",
"rrrggrgrggerrrrrggrrrrggrgrrreggyyyyyyyyyyyyyyyyyyyyyyygyggrryyy",
"grrrrrrrrggrgrgrrrgrgrrrrrrggereyyyyyyyyyyyyyyyyyyyyyyryyryyyyyy",
"rrgrrgrrgrrrgrrrrgrrrrgrrjrggregyyyyyyyyyyyyyyyyyyyyayyyyyyyyyyy",
"grgrrrggrrgrrrgrrrrggrrrrrrrergeyyyyyyyyyyyyyyyyyyyytyyyyyyyyyyy",
"rrrgrrrrrgrgrrrgrggrrgrgrjejeegeyyyyyyyyyyyyyyyyyyyyyyyyyyyyyyyy",
"rgrggrgrrrrrrgrgrrrrrrrrrreeejeeyyyyyyyyyyyyyyyyyyyyyyyyyyyyyyyy",
"rrrrrrrrrrggrrrrggrgrrggeejjeeggyyyyyyyyyyyyyyyyyyyyyyyyyyyyyyyy",
"grgrrggrgrrrgrgrrrrrgrrrjreejeeeyyyyyyyyyyyyyyyyyyyyyyyyyyyyyyyy",
"rrrgrrrrrggrrrrgegrrrregrregegegyyyyyyyyyyyyyyyyyyyyptptptptptpt",
"ggrrgrggrrrrrgrrregegegrgegrgrreyyyyyyyyyyyyyyyyyyyytttptptptptp",
"rrrrrrrrgrgrgrgrrgegegeregererrgyyyyyyyyyyyyyyyyyyyytattptptptpt",
"grgrrggrrrrrgrrrgegrregeregegrreyyyyyyyyyyyyyyyyyyyytatttptptptp",
"rrrggrrrggrrrgrregegegegrgererrgyyyyyyyyyyyyyyyyyyyyyytaptptptpt",
"rgrrrrgrrrrgrgrgrrregrrrgegrgegeyyyyyyyyyyyyyyyyyyyyyytatptptptp",
"rrrggrgrrrrrrrrgrrrgerrregegrgegyyyyyyyyyyyyyyyyyyyyyyyyptptptpt",
"ggrrrrgrggrgrgrrgegegegegrreregryyyyyyyyyyyyyyyyyyyyyyyaddtptptp",
"rrgrjjrjjgggrrgregerrgeregegegeryyyyyyyyyyyyyyyygrgrrgjjddpuuuuu",
"grrrreeerwrrrgrrregegegrgrrrregeyyyyyyyyyyyyyyyyrrrryrqrttruuuur",
"rrree644346qggqrrgegegegerrrrgegyyyyyyyyyyyyyyyyrgrgr643246tsyuu",
"rgjj83=$$*29rgrggerrgrregegegerryyyyyyyyyyyyyyyyrrgg92=%#*37ssyr",
"yyya8>..  :9ggrrrregegegerrgrregyyyyyyyyyyyyyyyygrgg7>    >7sssy",
"yrgg8>..  >9gggegegrrrregegegegryyyyyyyyyyyyyyyyrrgg7>    >7ssyy",
"yyrg9,$  $>8gregegerrrrgrgegegeryyyyyyyyyyyyyyyyrerg7<#  #,7ssyy",
"yygg9,$ .+<9jrgrregegegeregrregeyyyyyyyyyyyyyyyyggrg7,#  #,7fiyy",
"yyga9,#  #,9aayywgwwrggwgrgregegrrrgrrrryyyyyyyyrggg9,@  #,7aayy",
"yyaa7,#  #,7fayyqgrgrwrrwrwggrrrrgrrggrgyyyyyyyrrrrg9,@  #<7fayy",
"yyad7,#  #<9jjaarggggrrgrerrerrrgrgrrrrryyyagaygssgg91#  #,7afyy",
"yyad7,#  #1rjffaggrgggrrrgrggegegrrrrggwyyafaaggfssjq1#  #,7fayy",
"yyad9,#  +-5r99999899qgrgeerrgegrrrrrrrqyyr99777999r5-+  #,9aayy",
"yyad9,#  O=-,1,,,:::35rgrggrgegrrgrggrggar62::,,><<1-*O  #,7fayy",
"yyaa7,#  XO+####%$  *3rgggegegerrrrggrryjw4* .+$####+OX  #,7afyy",
"yydd7,o             %2qgrrrrrrgergrrrrggjq3$             O,7aayy",
"raaa7;          ... %2wgrrrrgrrrgrrrgrgggq3$              >7ggrr",
"yyag71& o#######$$. =4wgjrggrrgrgrgrrrrrgr4*  @@#######o &,7gygr",
"grgyr41;>,,<<<,,>>>>26wjrgrrrgrgrrrrrgrggr62::,,,,<,<,>>>,6rggrr",
"grratr77777777778999qwgwgrgrrrrgrgrgergryrr9997777777788777ywrrg",
"rwrgaaadaaafassfjjjjjrrrrgrrrrrrrgrgrrrgyyaadfafssfaggigggggggwr",
"wgrwtaadfafaaaaaejeejrggergrgrgrrrrrgrrryyaaasaassaagggiggwrwwwg",
"gqgwyyyyyyyyyyyyjeererrrrgrrgrrrgrgrrrgryyyyyyyyyyaygrgwerrgrgrg",
"qgwgyyyyyyyyyyyyerjejrgrrrrgrrgrgrrrgrgryyyyyyyyyyyyrrwgrrrwgrrw"
};
